<svg width="31" height="30" viewBox="0 0 31 30" fill="none" xmlns="http://www.w3.org/2000/svg">
<path opacity="0.2" d="M15.547 3.92969C13.3076 3.92971 11.1209 4.60887 9.27548 5.87751C7.43011 7.14616 6.01287 8.94462 5.21087 11.0355C4.40887 13.1263 4.25982 15.4112 4.7834 17.5885C5.30699 19.7659 6.47858 21.7332 8.1435 23.2308V23.2307C8.8381 21.8642 9.89746 20.7166 11.2042 19.9152C12.5109 19.1138 14.0141 18.6898 15.547 18.6902C14.6347 18.6902 13.7429 18.4197 12.9843 17.9129C12.2258 17.406 11.6345 16.6856 11.2854 15.8428C10.9363 14.9999 10.845 14.0724 11.0229 13.1777C11.2009 12.2829 11.6402 11.461 12.2853 10.8159C12.9304 10.1708 13.7523 9.7315 14.6471 9.55352C15.5419 9.37554 16.4693 9.46689 17.3122 9.81601C18.155 10.1651 18.8754 10.7563 19.3823 11.5149C19.8891 12.2734 20.1596 13.1653 20.1596 14.0776C20.1596 15.3009 19.6737 16.4742 18.8086 17.3392C17.9436 18.2042 16.7703 18.6902 15.547 18.6902C17.0799 18.6898 18.583 19.1138 19.8897 19.9152C21.1965 20.7166 22.2558 21.8642 22.9504 23.2307C24.6154 21.7331 25.787 19.7658 26.3105 17.5885C26.8341 15.4111 26.6851 13.1262 25.8831 11.0354C25.0811 8.94456 23.6638 7.1461 21.8184 5.87747C19.9731 4.60884 17.7863 3.92969 15.547 3.92969V3.92969Z" fill="#E34444"/>
<path d="M15.547 26.0705C21.661 26.0705 26.6174 21.1141 26.6174 15.0001C26.6174 8.88608 21.661 3.92969 15.547 3.92969C9.43295 3.92969 4.47656 8.88608 4.47656 15.0001C4.47656 21.1141 9.43295 26.0705 15.547 26.0705Z" stroke="#E34444" stroke-width="1.84507" stroke-miterlimit="10"/>
<path d="M15.5502 18.6902C18.0977 18.6902 20.1628 16.625 20.1628 14.0775C20.1628 11.53 18.0977 9.46484 15.5502 9.46484C13.0027 9.46484 10.9375 11.53 10.9375 14.0775C10.9375 16.625 13.0027 18.6902 15.5502 18.6902Z" stroke="#E34444" stroke-width="1.84507" stroke-miterlimit="10"/>
<path d="M8.14844 23.2319C8.84335 21.8656 9.90277 20.7183 11.2094 19.9169C12.5161 19.1156 14.019 18.6914 15.5519 18.6914C17.0847 18.6914 18.5876 19.1156 19.8943 19.9169C21.201 20.7183 22.2604 21.8656 22.9553 23.2319" stroke="#E34444" stroke-width="1.84507" stroke-linecap="round" stroke-linejoin="round"/>
</svg>
